<?xml version="1.0" encoding="utf-8"?>
<!-- Generator: Adobe Illustrator 18.1.1, SVG Export Plug-In . SVG Version: 6.00 Build 0)  -->
<svg version="1.1" id="Layer_1" xmlns="http://www.w3.org/2000/svg" xmlns:xlink="http://www.w3.org/1999/xlink" x="0px" y="0px"
	 viewBox="0 0 800 600" enable-background="new 0 0 800 600" xml:space="preserve">
<g>
	<g>
		<path fill="#FFFFFF" d="M142,291.4L142,291.4c0.1,0.2,0.6,0.1,0.9,0c0.1,0,0.2-0.1,0.3-0.1C142.7,290.1,141.6,291.1,142,291.4z"/>
	</g>
	<g>
		<path fill="#FFFFFF" d="M160.6,280.6c-2.4-2.4-4.9-4.7-7-7.3c-1.9-2.2-3.5-4.5-6.2-5.7c-1.4-0.6-2.8-1-4.3-1s-2.8,0.6-4.3,0.6
			c-2.7,0.1-5.3-1.5-8.1-1.7c-6.8-0.4-13.7-0.2-20.2,2.1c-3.1,1.1-5.6,2.2-8.8,1.3c-2.9-0.8-5.3,0.4-7.6,2.1
			c-2.4,1.7-3.8,4.7-5.6,7.1c-2.1,2.8-4.3,5.6-6.3,8.4c-1.8,2.5-4.2,5.1-5.2,8.1c-0.8,2.5,0.1,4.8,1.5,6.9c1.1,1.6,2.8,3.5,4.8,2
			c1.6-1.2,2.1-3.6,2.8-5.3c1.2-2.9,1.8-6.3,3.2-9.1c1.1-2.1,3.6-2.2,5.7-2.6c-1.2,3.1-0.8,6.4-0.6,9.7c0.1,3,0.2,6,0.7,8.9
			c0.5,3.2,0.6,6.5,1.3,9.6c0.2,1.1,0.7,2.2,0.2,3.4c-0.5,1.1-1.1,2-1.6,3.1c-2.1,5.5-6.5,9.7-9.2,14.8c-1.2,2.2-2.1,4.6-3.1,7
			c-0.7,1.6-2.1,4.5-0.5,6c-0.4,0.2-0.7,0.4-1.1,0.6c0.1,0.2,0.2,0.2,0.2,0.2c0.3,0.4,0.9,1.2,1,1.3c0.5,0.5,1,0.9,1.5,1.4
			c1,0.9,2.1,1.7,3.2,2.5c2.4,1.9,4.9,3.6,7.6,5.1c5.3,2.9,11,4.9,16.9,6.1c5.2,1.1,10.9,1.6,16.1,0.8c1.4-0.2,2.6-0.8,4-1
			c1.5-0.3,3.1-0.3,4.7-0.6c2.4-0.5,4.7-1.2,6.9-2.1c4.9-1.9,9.7-4.6,13.9-7.8c1.8-1.4,3.2-3,4.6-4.9c1.2-1.6,2.7-3,1.9-5
			c-2.2-5.1-5.1-10-7.7-14.9c-2.2-4.3-5.3-8.6-5.6-13.6c-0.4-5.3,2.3-9.9,2.6-15c0.2-3-0.6-5.8-0.6-8.7c0-2.4,1.1-4.5,1.6-6.8
			c2.3,2.3,3,5.7,5.2,8c2.4,2.5,5.7,2.7,7.8-0.3C170.2,289.4,163.8,283.8,160.6,280.6z M131.1,289.6c1.6-5.9,10.3-2.2,12.1,1.6
			c0,0-0.2,0.1-0.3,0.1c-2.6,1.1-5.2,2.7-8.1,2.8C132,294.1,130.3,292.5,131.1,289.6z M106,288.5c2.7-0.7,5-1.3,6.3,1.6
			c0.1,0,0.1,0.3,0,0.7c0,0.2,0,0.3-0.1,0.4v0.1c0,0,0,0,0-0.1c0,0,0,0,0-0.1c-0.3,0.7-0.7,1.4-0.8,1.5c-0.7,0.7-1.6,0.9-2.6,1
			c-1.9,0.1-4.4-0.6-5.6-2.1C101.7,289.6,104.6,288.9,106,288.5z M114.7,342.8c-0.7,1.3-0.4,2.8-0.7,4.2c-2.9-0.9-5.3-2.8-7.4-4.9
			c-2.2-2.3-4.7-4.5-6.4-7.1c-1.7-2.6-2.8-5.7-4-8.6c-0.9-2.1-1.1-4.4,0.3-6.2c-0.1,0-0.1-0.1,0.2-0.3c0.2-0.2,0.6-0.5,0.7-0.6
			c0.8,1.6,1,3.4,1.8,5c0.6,1.4,1.5,2.8,2.3,4.1c1.7,2.7,4,5,6.3,7.1c1.2,1.1,2.5,2,4,2.7c1.1,0.6,2.6,0.9,3.5,1.8
			C116.4,341,115.3,341.7,114.7,342.8z M122.1,348.8c-2.1,0.2-4.5-0.8-4.7-3.1c-0.3-2.3,1.3-3.4,3.2-4.1h0.1l0,0
			c0.1,0,0.2-0.1,0.3-0.1c0.4-0.2,2.5,0.4,2.8,0.6c1,0.4,1.5,1.1,1.8,2.1C126.1,346.6,124.5,348.5,122.1,348.8z M125.7,319.4
			c-1.1-1.3-2.6-1.6-4.2-1.8c-1.5-0.3-3.5-0.9-4.6,0.6c-0.8,1.2-0.8,2.9-1.6,4.1c-1.8,2.9-5,4.8-8.1,2.3c1.2-0.7,2.8-1,3.7-2.2
			c1-1.3,0.8-3,0.8-4.5c0-1.7-0.1-3.4,0.5-5c0.6-1.5,1.7-2.8,1.7-4.5c-0.1-2.4-2.2-4-2.8-6.1c-0.8-2.5,0.8-4.4,2.8-5.7
			c4.4-2.7,12-3.4,15.1,1.9c0.6,1.1,0.7,2.5,0.6,3.7c-0.1,1.5-0.8,2.2-1.6,3.4c-1.6,2.4,0,4.5,1,6.7c1.3,2.7,2.1,5.6,3.5,8.3
			c0.6,1.1,1.4,2.4,2.7,2.7c0.8,0.2,1.5-0.3,2.1,0.1c0.1,0,0.2,0.2,0.4,0.5c-0.1,0.1-0.1,0.1-0.2,0.2c-1.2,1.1-2.5,2.5-4.2,2.7
			c-1.9,0.2-3.3-1.4-4.5-2.7C127.5,322.8,127,320.9,125.7,319.4z M145.8,331.6c-1.5,2.9-4,4.9-6.2,7.2c-0.8,0.9-8.8,9.7-10.6,7.3
			c-0.4-0.5,0-1.7-0.2-2.3c-0.1-0.5-0.4-1-0.5-1.5c-0.2-1.3,0.2-1.7,1.3-2.3c3.1-1.9,5.7-3.6,8.3-6.2c2.3-2.3,4.8-4.5,6.7-7.2
			c0.6-0.8,2.9-4.2,4.3-4.3c0.1,0,0.1,0,0.3,0C149,325.6,147.3,328.8,145.8,331.6z M150,295.3c-0.9,1.6-2.6,0.3-3.3-0.8
			c-1.3-2-1.1-4.6-2.3-6.6c-0.9-1.5-7.6-6.9-6.5-9.6c0-0.1,0.1-0.3,0.3-0.5c0.2,0,0.3,0.1,0.3,0.2c3.4,2.3,7.1,5.6,9.1,9.1
			C148.5,289,151.2,293.3,150,295.3z"/>
	</g>
	<g>
		<path fill="#FFFFFF" d="M138.3,278.1c0.1,0,0.1,0.1,0.1,0.1v-0.1c-0.1-0.1-0.2-0.1-0.3-0.2c-0.1,0.1-0.3,0.3-0.3,0.5
			C137.8,278.7,138.5,278.4,138.3,278.1z"/>
	</g>
	<g>
		<path fill="#FFFFFF" d="M137.3,324.2L137.3,324.2c0.1,0.1,0.2,0.1,0.3,0s0.1-0.1,0.2-0.2c-0.1-0.2-0.3-0.4-0.4-0.5
			C137.1,323.5,137.1,324,137.3,324.2z"/>
	</g>
	<g>
		<path fill="#FFFFFF" d="M97.3,319.2c-0.3,0.3-0.5,0.5-0.7,0.6c-0.1,0.1-0.1,0.1-0.1,0.2c0,0,0,0,0.1-0.1c-0.1,0.1-0.1,0.1-0.1,0.2
			c0.1,0,0.4-0.2,0.6-0.4C97.2,319.6,97.4,319.4,97.3,319.2z"/>
	</g>
	<g>
		<path fill="#FFFFFF" d="M112.2,291.1C112.2,291,112.2,291,112.2,291.1C112.3,291.1,112.3,291.1,112.2,291.1
			C112.3,291.1,112.3,291.1,112.2,291.1c0,0,0-0.1,0.1-0.1c0-0.1,0-0.1,0.1-0.2c0-0.1,0-0.3,0-0.6c0,0,0,0,0-0.1l0,0
			C112.1,289.6,112.1,290.8,112.2,291.1z"/>
	</g>
	<g>
		<path fill="#FFFFFF" d="M121.3,341.5c0.1,0,0.1,0,0.2,0c-0.1-0.1-0.2-0.1-0.3-0.1h-0.1l0,0c-0.1,0-0.2,0.1-0.3,0.1l0,0h-0.1
			C119.7,341.9,121.1,341.7,121.3,341.5z"/>
	</g>
	<g>
		<path fill="#FFFFFF" d="M149.2,322.7C149.2,322.7,149.2,322.8,149.2,322.7c0,0,0-0.1,0.1-0.2c-0.1,0-0.2,0-0.3,0
			C148.7,322.5,149,322.9,149.2,322.7z"/>
	</g>
</g>
<path fill="#FFFFFF" d="M246.1,315.1h-3c-8.7,0-12.2-3.8-12.2-11.9v-24.8c0-5.3,1.4-5.3,9.7-5.3h6.3c8.5,0,15.7,2.9,15.7,10.8
	c0,5.2-2.8,8.4-7.5,10.2c4.5,1.2,7.4,3.8,7.4,8.9C262.4,310.6,255.1,315.1,246.1,315.1z M245,280.6h-4.5v10.8h3.6
	c5.2,0,8.4-1.9,8.4-5.7C252.5,281.9,249.3,280.6,245,280.6z M244.5,297.8h-4v5.1c0,3.1,0.9,4.5,4,4.5h0.8c3.3,0,7-1.4,7-5.1
	C252.4,298.7,249,297.8,244.5,297.8z"/>
<path fill="#FFFFFF" d="M281.1,315.1c-8.9,0-11.9-2.9-11.9-11.6v-25.8c0-5,1.2-5,9.8-5v29.8c0,2.8,1.2,4,4.1,4h13.2v8.5h-15.2V315.1
	z"/>
<path fill="#FFFFFF" d="M331.6,315.1l-2.5-7.3h-16.3l-2.1,7.3H300c4.3-13.6,9.1-25.3,14-34.9c1.1-2.2,1.4-4.1,1-5.4
	c3.3-1.6,7.6-2.3,11-2.4l16.5,41.8v0.8h-10.8V315.1z M321.3,284.7c-2.2,4.8-4.2,10-5.9,15.1h11.1L321.3,284.7z"/>
<path fill="#FFFFFF" d="M379.4,307.7c0,5.4-6.7,8-14.4,8c-13.7,0-21.5-8.9-21.5-22.9c0-12.3,8.4-20.4,21.4-20.4
	c9,0,15.9,4.2,15.9,10.9c0,3.7-2.5,5.9-6.5,5.9h-2.1v-1.4c0-4.4-2.5-7.3-7.4-7.3c-6.5,0-11.1,5-11.1,12.4c0,8.9,5.2,14.5,14.6,14.5
	c4,0,7.7-0.9,11.2-2.4v2.7H379.4z"/>
<path fill="#FFFFFF" d="M423.9,310.7c0,3.3-3.4,5-7.4,5c-3.9,0-5.7-1-8.4-5.3l-7-11.2h-4.5V315h-9.7v-37.3c0-5,1.2-5,9.7-5v18.1h3.9
	c4.4-5.3,8.7-12.1,11.6-17.9h10.6v0.8c-3.7,6.9-8.3,13.7-14,20.2l8.6,11.9c1.7,2.5,3.3,3.4,5.8,3.4h0.8V310.7z"/>
<path fill="#FFFFFF" d="M462.5,315.1h-4.6c-8.7,0-12.1-3.8-12.1-11.9v-21.8h-3.7c0-5.5,0-8.3,3.3-8.3h17.3
	c12.3,0,20.8,6.6,20.8,19.9C483.5,306.4,473.7,315.1,462.5,315.1z M455.3,281.3V302c0,3.3,1.4,4.8,4.6,4.8h1.4
	c6.4,0,11.8-4.5,11.8-13.8c0-8.7-5.7-11.6-12.4-11.6h-5.4V281.3z"/>
<path fill="#FFFFFF" d="M490.2,315.1v-37.3c0-5,1.2-5,9.7-5v42.3H490.2z"/>
<path fill="#FFFFFF" d="M537.2,315.1l-2.5-7.3h-16.3l-2.1,7.3h-10.8c4.3-13.6,9.1-25.3,14-34.9c1.1-2.2,1.4-4.1,1-5.4
	c3.3-1.6,7.6-2.3,11-2.4l16.5,41.8v0.8h-10.8V315.1z M526.9,284.7c-2.2,4.8-4.2,10-5.9,15.1h11L526.9,284.7z"/>
<path fill="#FFFFFF" d="M590.9,315.3v-27.1c-2.9,7.7-6.1,15.1-9.5,21.7c-2.7,1.1-6.2,1.6-9.2,1.6c-3.5-7.2-6.8-15.3-9.6-23.6v27.2
	h-9.1V275c3.8-1.6,9.1-2.2,13.2-2.4c2.8,8.8,6.3,18.3,10.2,26.9c4.1-8.6,7-16.3,9.8-24.6c3.9-1.7,9.1-2.3,13.4-2.3v37.7
	C600,315.3,599,315.3,590.9,315.3z"/>
<path fill="#FFFFFF" d="M684.4,315.9l-19.3-27.1v26.3h-9.5v-40.3c2.6-1.4,6.4-2.2,9.3-2.4l19.3,26.7v-26h9.5v40.4
	C691,314.8,687.2,315.7,684.4,315.9z"/>
<path fill="#FFFFFF" d="M697.5,304.6h-4.6c-8.7,0-12.1-3.8-12.1-11.9v-21.8h-3.7c0-5.5,0-8.3,3.3-8.3h17.3
	c12.3,0,20.8,6.6,20.8,19.9C718.5,295.9,708.7,304.6,697.5,304.6z M690.4,270.8v20.7c0,3.3,1.4,4.8,4.6,4.8h1.4
	c6.4,0,11.8-4.5,11.8-13.8c0-8.7-5.7-11.6-12.4-11.6L690.4,270.8L690.4,270.8z"/>
<polygon fill="none" stroke="#FFFFFF" stroke-width="5" stroke-miterlimit="10" points="627.8,316.4 647,305.3 647,283.2 
	627.8,272.1 608.5,283.2 608.5,305.3 "/>
<polygon fill="none" stroke="#FFFFFF" stroke-width="5" stroke-miterlimit="10" points="627.8,304.7 636.8,299.5 636.8,289.1 
	627.8,283.8 618.8,289.1 618.8,299.5 "/>
<path fill="#FFFFFF" d="M351,339.7v6.6h-2.3v-15.9h4.9c0.8,0,1.5,0,2.1,0.1s1.1,0.1,1.6,0.2c1.3,0.3,2.3,0.8,3,1.5s1,1.6,1,2.7
	c0,0.6-0.1,1.2-0.4,1.7c-0.2,0.5-0.6,0.9-1,1.3s-1,0.7-1.6,0.9c-0.6,0.2-1.3,0.4-2.1,0.5l0,0l5.6,6.8h-2.3l-5.8-6.6H351V339.7z
	 M351,332.2v5.8h2.3c0.7,0,1.3,0,1.8-0.1c0.5,0,0.9-0.1,1.3-0.2c0.8-0.2,1.4-0.5,1.9-1c0.4-0.5,0.6-1,0.6-1.8c0-0.7-0.2-1.2-0.6-1.6
	s-1-0.7-1.7-0.9c-0.3-0.1-0.7-0.2-1.2-0.2s-1.1-0.1-1.8-0.1H351V332.2z"/>
<path fill="#FFFFFF" d="M389.4,346.3h-2.3v-14.1h-6.3v-1.7h14.9v1.7h-6.3L389.4,346.3L389.4,346.3z"/>
<path fill="#FFFFFF" d="M405.5,346.3h-2.3v-14.1h-6.3v-1.7h14.9v1.7h-6.3V346.3z"/>
<path fill="#FFFFFF" d="M425.1,333c-0.2,0.7-0.5,2-1.1,3.8l-2.9,9.4h-2.3l-5.8-15.9h2.3l3.3,9.3c0.5,1.5,1,2.8,1.3,4h0.1
	c0.2-0.7,0.4-1.5,0.6-2.1c0.2-0.7,0.4-1.3,0.6-1.9l2.9-9.3h2.3l2.9,9.3c0.7,2.2,1.1,3.6,1.2,4h0.1c0.3-1.1,0.8-2.5,1.3-4l3.3-9.3
	h2.3l-5.8,15.9h-2.3l-2.9-9.4C425.6,335.1,425.3,333.8,425.1,333L425.1,333z"/>
<path fill="#FFFFFF" d="M437.2,346.3l7.7-15.9h2l7.7,15.9h-2.5l-2.3-4.8h-7.9l-2.3,4.8H437.2z M445.9,332.9c-0.8,2-1.6,3.8-2.4,5.4
	l-0.7,1.5h6.3l-0.7-1.5C447.5,336.6,446.7,334.8,445.9,332.9L445.9,332.9z"/>
<path fill="#FFFFFF" d="M457.5,346.3v-15.9h2.3v15.9H457.5z"/>
<path fill="#FFFFFF" d="M466.9,330.4v14.1h9.2v1.7h-11.5v-15.9L466.9,330.4L466.9,330.4z"/>
<path fill="#FFFFFF" d="M482,344.5h9.7v1.7h-12v-15.9h11.5v1.7H482v5.1h8.2v1.7H482V344.5z"/>
<path fill="#FFFFFF" d="M497.9,339.7v6.6h-2.3v-15.9h4.9c0.8,0,1.5,0,2.1,0.1c0.6,0.1,1.1,0.1,1.6,0.2c1.3,0.3,2.3,0.8,3,1.5
	s1,1.6,1,2.7c0,0.6-0.1,1.2-0.4,1.7c-0.2,0.5-0.6,0.9-1,1.3s-1,0.7-1.6,0.9s-1.3,0.4-2.1,0.5l0,0l5.6,6.8h-2.3l-5.8-6.6h-2.7V339.7z
	 M497.9,332.2v5.8h2.3c0.7,0,1.3,0,1.8-0.1c0.5,0,0.9-0.1,1.3-0.2c0.8-0.2,1.4-0.5,1.9-1c0.4-0.5,0.7-1,0.7-1.8
	c0-0.7-0.2-1.2-0.6-1.6s-1-0.7-1.7-0.9c-0.3-0.1-0.7-0.2-1.2-0.2s-1.1-0.1-1.8-0.1h-2.7V332.2z"/>
<path fill="#FFFFFF" d="M526.7,331.8c-1.1,0-2,0.1-3,0.4c-0.9,0.3-1.7,0.7-2.4,1.3c-0.7,0.6-1.2,1.3-1.6,2.1
	c-0.4,0.8-0.6,1.8-0.6,2.9s0.2,2,0.5,2.8s0.9,1.5,1.5,2c0.7,0.5,1.5,0.9,2.4,1.2s2,0.4,3.1,0.4c0.3,0,0.6,0,1,0s0.7-0.1,1.1-0.1
	c0.4-0.1,0.7-0.1,1-0.2s0.6-0.1,0.9-0.2v1.7c-0.6,0.2-1.2,0.3-1.9,0.4s-1.5,0.1-2.3,0.1c-1.6,0-3-0.2-4.2-0.6s-2.2-0.9-3.1-1.6
	c-0.8-0.7-1.4-1.5-1.9-2.5c-0.4-1-0.6-2.1-0.6-3.4c0-1.2,0.2-2.4,0.7-3.4c0.4-1,1.1-1.9,1.9-2.7c0.8-0.7,1.9-1.3,3.1-1.7
	s2.6-0.6,4-0.6c0.4,0,0.8,0,1.2,0s0.8,0.1,1.1,0.1c0.4,0.1,0.7,0.1,1,0.2s0.6,0.1,0.8,0.2v1.7c-0.6-0.2-1.2-0.3-1.9-0.4
	C528,331.9,527.3,331.8,526.7,331.8z"/>
<path fill="#FFFFFF" d="M536.9,344.5h9.7v1.7h-12v-15.9h11.5v1.7h-9.2v5.1h8.2v1.7h-8.2V344.5z"/>
<path fill="#FFFFFF" d="M560.2,339.3c1.2,1.4,2.3,2.8,3.4,4.3h0.1c-0.1-1.5-0.2-3.1-0.2-4.7v-8.4h2.3v15.9h-2.3l-7.4-8.8
	c-1.3-1.5-2.4-3-3.4-4.3h-0.1c0.1,1.4,0.2,3.1,0.2,5.1v8.1h-2.3v-15.9h2.3L560.2,339.3z"/>
<path fill="#FFFFFF" d="M577.5,346.3h-2.3v-14.1h-6.3v-1.7h14.9v1.7h-6.3L577.5,346.3L577.5,346.3z"/>
<path fill="#FFFFFF" d="M589,344.5h9.7v1.7h-12v-15.9h11.5v1.7H589v5.1h8.2v1.7H589V344.5z"/>
<path fill="#FFFFFF" d="M605,339.7v6.6h-2.3v-15.9h4.9c0.8,0,1.5,0,2.1,0.1s1.1,0.1,1.6,0.2c1.3,0.3,2.3,0.8,3,1.5s1,1.6,1,2.7
	c0,0.6-0.1,1.2-0.4,1.7c-0.2,0.5-0.6,0.9-1,1.3s-1,0.7-1.6,0.9s-1.3,0.4-2.1,0.5l0,0l5.6,6.8h-2.3l-5.8-6.6H605V339.7z M605,332.2
	v5.8h2.3c0.7,0,1.3,0,1.8-0.1c0.5,0,0.9-0.1,1.3-0.2c0.8-0.2,1.4-0.5,1.9-1c0.4-0.5,0.7-1,0.7-1.8c0-0.7-0.2-1.2-0.6-1.6
	s-1-0.7-1.7-0.9c-0.3-0.1-0.7-0.2-1.2-0.2s-1.1-0.1-1.8-0.1H605V332.2z"/>
<line fill="none" stroke="#FFFFFF" stroke-width="5" stroke-miterlimit="10" x1="627.8" y1="272.1" x2="627.8" y2="283.8"/>
<line fill="none" stroke="#FFFFFF" stroke-width="5" stroke-miterlimit="10" x1="647" y1="283.2" x2="636.8" y2="289.1"/>
<line fill="none" stroke="#FFFFFF" stroke-width="5" stroke-miterlimit="10" x1="647" y1="305.3" x2="636.8" y2="299.5"/>
<line fill="none" stroke="#FFFFFF" stroke-width="5" stroke-miterlimit="10" x1="627.8" y1="316.4" x2="627.8" y2="304.7"/>
<line fill="none" stroke="#FFFFFF" stroke-width="5" stroke-miterlimit="10" x1="608.5" y1="305.3" x2="618.8" y2="299.5"/>
<line fill="none" stroke="#FFFFFF" stroke-width="5" stroke-miterlimit="10" x1="608.5" y1="283.2" x2="618.8" y2="289.1"/>
<line fill="none" stroke="#FFFFFF" stroke-width="3" stroke-miterlimit="10" x1="230.8" y1="337.6" x2="334.9" y2="337.6"/>
<line fill="none" stroke="#FFFFFF" stroke-width="3" stroke-miterlimit="10" x1="629" y1="337.6" x2="740.4" y2="337.6"/>
<circle fill="none" stroke="#FFFFFF" stroke-width="9" stroke-miterlimit="10" cx="122.2" cy="304.5" r="62.6"/>
<path opacity="0.25" fill="#FFFFFF" enable-background="new    " d="M166.6,354.2c-3.7,3.5-9.2,7.8-16.7,11.3
	c-12.2,5.7-23.4,6.2-29.6,6c0-44.6,0-89.2,0-133.8c5.7-0.4,19.7-0.5,34.6,7.8c16.2,9.1,23.6,22.7,26,27.7c2.5,4.3,12.4,22.8,7,46.3
	C183.4,339.1,170.9,350.6,166.6,354.2z"/>
<g>
	<path fill="#FFFFFF" stroke="#FFFFFF" stroke-width="0.4" stroke-miterlimit="10" d="M371.3,346.3c-2.2,0-3.9-0.7-5.2-2.2
		s-2-3.3-2-5.6c0-2.5,0.7-4.5,2-6s3.2-2.2,5.4-2.2c2.1,0,3.8,0.7,5.1,2.2c1.3,1.4,1.9,3.3,1.9,5.6c0,2.5-0.7,4.5-2,6
		C375.3,345.6,373.5,346.3,371.3,346.3z M371.4,332c-1.6,0-2.9,0.6-3.9,1.8s-1.5,2.7-1.5,4.6s0.5,3.4,1.5,4.6s2.3,1.7,3.8,1.7
		c1.7,0,3-0.6,4-1.7s1.5-2.7,1.5-4.6c0-2-0.5-3.6-1.4-4.7C374.3,332.5,373.1,332,371.4,332z"/>
</g>
</svg>
