<svg version="1.1" id="Layer_1" xmlns="http://www.w3.org/2000/svg" xmlns:xlink="http://www.w3.org/1999/xlink" x="0px" y="0px"
	 width="800px" height="400px" viewBox="0 0 800 400" style="enable-background:new 0 0 800 400;" xml:space="preserve">
<style type="text/css">
	.st0{fill:#231F20;}
</style>

	<dash>
		<style>
				.st0 {
					stroke-dasharray: 300;
					stroke-dashoffset: 0;
					-webkit-animation: dash 2s linear forwards;
				}
				@-webkit-keyframes dash{
					from{
						stroke-dashoffset: 300;
					}
					to{
						stroke-dashoffset: 0;
					}
				}
		</style>
	</dash>
<g>
	<g>
		<path class="st0" d="M234.101,211.184c-0.087-16.171-1.108-32.312-1.612-48.471c-0.519-16.657,0.315-33.046,2.599-49.556
			c1.643-11.875,3.804-24.899,14.747-31.677c8.807-5.455,20.586-7.292,30.714-5.536c23.899,4.144,25.604,35.987,26.73,54.941
			c1.057,17.775,2.977,35.937,7.172,53.285c1.878,7.767,4.587,15.912,10.042,21.936c5.559,6.138,14.041,5.861,21.492,3.957
			c18.811-4.807,24.409-26.771,27.191-43.351c2.282-13.598,3.42-27.364,5.14-41.037c1.786-14.192,4.973-27.872,8.927-41.596
			c2.812-9.763,6.613-20.569,16.848-24.614c10.329-4.083,23.207-1.066,32.132,4.898c18.009,12.035,24.24,37.841,28.179,57.712
			c3.112,15.701,4.166,31.75,5.381,47.681c1.049,13.756,1.503,28.133,4.888,41.563c4.769,18.921,25.212,25.301,42.898,25.533
			c26.362,0.346,27.825-31.014,34.839-49.458c10.381-27.298,17.338-56.735,18.479-86.05c0.391-10.063,0.255-21.014,4.361-30.408
			c4.622-10.575,19.23-8.531,28.679-7.841c11.805,0.862,20.645,4.709,27.245,14.828c3.287,5.039,5.586,10.71,8.334,16.045
			c3.594,6.976,7.249,13.876,9.723,21.349c4.955,14.964,5.493,31.531,6.442,47.137c0.97,15.964,1.148,31.99-0.609,47.907
			c-1.642,14.873-4.7,30.226-8.382,44.729c-3.483,13.719-9.752,26.187-19.908,36.149c-19.843,19.463-50.876,24.266-77.336,26.597
			c-31.032,2.734-62.278,0.797-93.377,1.516c-31.62,0.731-63.163,3.501-94.478,7.896c-32.362,4.542-64.174,13.136-96.805,15.457
			c-16.17,1.15-32.407,1.137-48.609,0.974c-10.507-0.106-21.168-2.488-30.44-7.493c-9.161-4.944-18.593-15.638-15.446-26.847
			c1.607-5.725,8.045-9.456,12.737-12.339c6.487-3.986,13.016-8.137,20.149-10.872c13.818-5.297,30.243-2.674,44.733-3.43
			c16.428-0.858,31.845-1.114,48.024,2.443c20.752,4.562,40.581,10.138,62.055,9.315c9.12-0.35,18.185-1.985,26.562-5.667
			c9.491-4.171,17.527-12.375,24.289-20.008c2.13-2.404-1.393-5.954-3.536-3.536c-8.853,9.995-18.67,18.694-31.831,22.107
			c-12.32,3.195-25.648,2.581-38.17,1.102c-14.129-1.669-27.752-5.981-41.635-8.91c-15.281-3.225-30.267-2.712-45.758-1.847
			c-14.242,0.795-28.91-0.95-42.866,2.594c-6.268,1.592-12.066,4.948-17.587,8.203c-5.283,3.115-10.649,6.181-15.372,10.119
			c-8.341,6.955-8.74,16.827-4.52,26.22c3.944,8.78,12.631,14.687,21.195,18.332c9.289,3.954,19.326,5.43,29.362,5.531
			c16.211,0.163,32.426,0.019,48.603-1.132c31.769-2.26,62.812-10.662,94.295-15.227c32.125-4.658,64.538-7.283,96.987-8.033
			c31.095-0.719,62.246,1.101,93.279-1.633c25.226-2.223,53.368-7.037,73.719-23.293c9.772-7.806,17.111-17.759,21.971-29.27
			c5.477-12.975,7.445-27.092,9.969-40.847c5.661-30.857,5.317-61.913,1.528-93.029c-1.755-14.414-5.642-27.283-12.25-40.182
			c-5.187-10.125-9.423-21.576-17.985-29.431c-7.435-6.821-17.024-8.041-26.665-8.695c-8.85-0.6-20.901-1.407-27.552,5.688
			c-6.215,6.631-6.921,17.877-7.584,26.426c-0.979,12.624-1.314,25.053-3.38,37.606c-2.483,15.095-5.272,30.768-10.38,45.212
			c-2.368,6.697-5.234,13.205-7.52,19.934c-2.587,7.616-3.965,15.57-6.736,23.136c-3.931,10.733-11.754,16.335-23.124,15.857
			c-9.655-0.406-21.998-3.209-29.327-9.879c-8.217-7.479-8.351-21.517-9.414-31.627c-1.635-15.54-2.377-31.158-4.009-46.699
			c-2.427-23.122-6.849-48.043-19.366-68.099c-10.459-16.759-30.682-27.517-50.409-20.841c-8.754,2.962-13.849,10.631-17.217,18.78
			c-4.571,11.061-7.412,23.493-9.634,35.197c-4.761,25.078-3.712,51.863-12.267,76.121c-3.276,9.289-9.223,17.566-18.988,20.502
			c-9.745,2.93-16.308-0.216-20.773-8.939c-4.147-8.102-5.746-17.632-7.205-26.525c-1.328-8.101-2.652-16.328-3.433-24.498
			c-1.985-20.781,0.002-44.626-13.055-62.361C285.6,63.1,247.78,67.254,236.389,88.67c-4.063,7.639-5.22,16.629-6.388,25.074
			c-1.443,10.433-2.449,20.911-2.705,31.444c-0.535,21.998,1.686,44,1.805,65.996C229.119,214.407,234.119,214.409,234.101,211.184
			L234.101,211.184z"/>
	</g>
</g>
</svg>
